/* XPM */
static char *bb31259555ce4f7180a2404cd937313e2RzJ2uToWX13nNGh[] = {
/* columns rows colors chars-per-pixel */
"128 128 6 1 ",
"  c black",
". c #FFA000",
"X c #FFC107",
"o c #FFEA00",
"O c #FFD54F",
"+ c white",
/* pixels */
"            ++++                                                                                                                ",
"            ++++                                                                                                                ",
"            ++++                                                                                                                ",
"            ++++                                                                                                                ",
"                                                                                                                                ",
"                                                                                                                                ",
"                                                                                                                                ",
"                                                                                                                                ",
"                                                                                                                                ",
"                                                                                                                                ",
"                                                                                                                                ",
"                                                                                                                                ",
"                                                                                                                                ",
"                                                                                                                                ",
"                                                                                                                                ",
"                                                                                                                                ",
"                                                                                                                                ",
"                                                                                                                                ",
"                                                                                                                                ",
"                                                                                                                                ",
"                                                                                                                                ",
"                                                                                                                                ",
"                                                                                                                                ",
"                                                                                                                                ",
"                                                                                                                                ",
"                                                                                                                                ",
"                                                                                                                                ",
"                                                                                                                                ",
"                                                                                                                                ",
"                                                                                                                                ",
"                                                                                                                                ",
"                                                                                                                                ",
"                                                                                                                                ",
"                                                                                                                                ",
"                                                                                                                                ",
"                                                                                                                                ",
"                                                                                                                        ++++    ",
"                                                                                                                        ++++    ",
"                                                                                                                        ++++    ",
"                                                                                                                        ++++    ",
"                                                                                                                                ",
"                                                                                                                                ",
"                                                                                                                                ",
"                                                                                                                                ",
"                                                    oooooooooooooooooooooooooooooooo                                            ",
"                                                    oooooooooooooooooooooooooooooooo                                            ",
"                                                    oooooooooooooooooooooooooooooooo                                            ",
"                                                    oooooooooooooooooooooooooooooooo                                            ",
"                                                OOOOoooooooooooooooooooooooooooooooooooo                                        ",
"                                                OOOOoooooooooooooooooooooooooooooooooooo                                        ",
"                                                OOOOoooooooooooooooooooooooooooooooooooo                                        ",
"                                                OOOOoooooooooooooooooooooooooooooooooooo                                        ",
"                                            OOOOOOOOOOOOOOOO................XXXXXXXXoooooooo                                    ",
"                                            OOOOOOOOOOOOOOOO................XXXXXXXXoooooooo                                    ",
"                                            OOOOOOOOOOOOOOOO................XXXXXXXXoooooooo                                    ",
"                                            OOOOOOOOOOOOOOOO................XXXXXXXXoooooooo                                    ",
"                                            OOOOOOOOOOOOOOOO................XXXXXXXXoooooooo                                    ",
"                                            OOOOOOOOOOOOOOOO................XXXXXXXXoooooooo                                    ",
"                                            OOOOOOOOOOOOOOOO................XXXXXXXXoooooooo                                    ",
"                                            OOOOOOOOOOOOOOOO................XXXXXXXXoooooooo                                    ",
"                                            OOOOOOOO........XXXXXXXXXXXXXXXXoooooooooooooooo                                    ",
"                                            OOOOOOOO........XXXXXXXXXXXXXXXXoooooooooooooooo                                    ",
"                                            OOOOOOOO........XXXXXXXXXXXXXXXXoooooooooooooooo                                    ",
"                                            OOOOOOOO........XXXXXXXXXXXXXXXXoooooooooooooooo                                    ",
"                                            OOOOOOOO........XXXXXXXXXXXXXXXXooooooooXXXXXXXX                                    ",
"                                            OOOOOOOO........XXXXXXXXXXXXXXXXooooooooXXXXXXXX                                    ",
"                                            OOOOOOOO........XXXXXXXXXXXXXXXXooooooooXXXXXXXX                                    ",
"                                            OOOOOOOO........XXXXXXXXXXXXXXXXooooooooXXXXXXXX                                    ",
"                                            OOOO............XXXXXXXXXXXXXXXXooooooooXXXXXXXX                                    ",
"                                            OOOO............XXXXXXXXXXXXXXXXooooooooXXXXXXXX                                    ",
"                                            OOOO............XXXXXXXXXXXXXXXXooooooooXXXXXXXX                                    ",
"                                            OOOO............XXXXXXXXXXXXXXXXooooooooXXXXXXXX                                    ",
"                                            OOOO............XXXXXXXXXXXXXXXXooooooooXXXXXXXX                                    ",
"                                            OOOO............XXXXXXXXXXXXXXXXooooooooXXXXXXXX                                    ",
"                                            OOOO............XXXXXXXXXXXXXXXXooooooooXXXXXXXX                                    ",
"                                            OOOO............XXXXXXXXXXXXXXXXooooooooXXXXXXXX                                    ",
"                                            ........ooooooooooooooooooooooooooooooooXXXXXXXX                                    ",
"                                            ........ooooooooooooooooooooooooooooooooXXXXXXXX                                    ",
"                                            ........ooooooooooooooooooooooooooooooooXXXXXXXX                                    ",
"                                            ........ooooooooooooooooooooooooooooooooXXXXXXXX                                    ",
"                                            ........ooooooooooooooooooooooooooooooooXXXXXXXX                                    ",
"                                            ........ooooooooooooooooooooooooooooooooXXXXXXXX                                    ",
"                                            ........ooooooooooooooooooooooooooooooooXXXXXXXX                                    ",
"                                            ........ooooooooooooooooooooooooooooooooXXXXXXXX                                    ",
"                                                ........................XXXXXXXXXXXXXXXX                                        ",
"                                                ........................XXXXXXXXXXXXXXXX                                        ",
"                                                ........................XXXXXXXXXXXXXXXX                                        ",
"                                                ........................XXXXXXXXXXXXXXXX                                        ",
"                                                    ....................XXXXXXXXXXXX                                            ",
"                                                    ....................XXXXXXXXXXXX                                            ",
"                                                    ....................XXXXXXXXXXXX                                            ",
"                                                    ....................XXXXXXXXXXXX                                            ",
"                                                                                                                                ",
"                                                                                                                                ",
"                                                                                                                                ",
"                                                                                                                                ",
"                                                                                                                                ",
"                                                                                                                                ",
"                                                                                                                                ",
"                                                                                                                                ",
"                                                                                                                                ",
"                                                                                                                                ",
"                                                                                                                                ",
"                                                                                                                                ",
"                                                                                                                                ",
"                                                                                                                                ",
"                                                                                                                                ",
"                                                                                                                                ",
"                                                                                                                                ",
"                                                                                                                                ",
"                                                                                                                                ",
"                                                                                                                                ",
"                            ++++                                                                                                ",
"                            ++++                                                                                                ",
"                            ++++                                                                                                ",
"                            ++++                                                                                                ",
"                                                                                                                                ",
"                                                                                                                                ",
"                                                                                                                                ",
"                                                                                                                                ",
"                                                                                                                                ",
"                                                                                                                                ",
"                                                                                                                                ",
"                                                                                                                                ",
"                                                                                                                                ",
"                                                                                                                                ",
"                                                                                                                                ",
"                                                                                                                                "
};
