/* XPM */
static char *_47ae4a65f7c4092e452042a19614c00ipSWtQpWPkKhrmy9[] = {
/* columns rows colors chars-per-pixel */
"32 32 6 1 ",
"  c black",
". c #FFA000",
"X c #FFC107",
"o c #FFEA00",
"O c #FFD54F",
"+ c white",
/* pixels */
"   +                            ",
"                                ",
"                                ",
"                                ",
"                                ",
"                                ",
"                                ",
"                                ",
"                                ",
"                              + ",
"                                ",
"             oooooooo           ",
"            Oooooooooo          ",
"           OOOO....XXoo         ",
"           OOOO....XXoo         ",
"           OO..XXXXoooo         ",
"           OO..XXXXooXX         ",
"           O...XXXXooXX         ",
"           O...XXXXooXX         ",
"           ..ooooooooXX         ",
"           ..ooooooooXX         ",
"            ......XXXX          ",
"             .....XXX           ",
"                                ",
"                                ",
"                                ",
"                                ",
"                                ",
"       +                        ",
"                                ",
"                                ",
"                                "
};
