/* XPM */
static char *cd0e2f25456f47dbf66ad45585b8333fKsrZ2tbl0zCol7hQ[] = {
/* columns rows colors chars-per-pixel */
"32 32 5 1 ",
"  c black",
". c #673AB7",
"X c #9C27B0",
"o c gray62",
"O c white",
/* pixels */
"   O                            ",
"                                ",
"                                ",
"                                ",
"            oooooooo            ",
"            oooooooo            ",
"          ooXXXXXXXXoo          ",
"          ooXXXXXXXXoo          ",
"        ooXXXXXXXXXXXXoo        ",
"        ooX........XXXoo      O ",
"      ooXX...........XXXoo      ",
"      ooX....XXXX.....XXoo      ",
"    ooXXX...XXXXXXX...XXXXoo    ",
"    ooXXX..XXXXXXXXX...XXXoo    ",
"    ooXXX..XXXXXXXXX...XXXoo    ",
"    ooXXX...XXX..XXXX..XXXoo    ",
"    ooXXX........XXXX..XXXoo    ",
"    ooXXXX.......XXX...XXXoo    ",
"    ooXXXXXXXXXXXXXX...XXXoo    ",
"    ooXXXXXXXXXXXXX...XXXXoo    ",
"      ooXXXXXXXXXXX...XXoo      ",
"      ooXXXXXXXXXX...XXXoo      ",
"        ooXXXXXXX...XXoo        ",
"        ooXXX.......XXoo        ",
"          oo.......Xoo          ",
"          oo...XXXXXoo          ",
"            oooooooo            ",
"            oooooooo            ",
"       O                        ",
"                                ",
"                                ",
"                                "
};
