/* XPM */
static char *_ed713ef0c134498c0e3a76a5a20a9a0NegloNtoDXXgCl0z[] = {
/* columns rows colors chars-per-pixel */
"32 32 3 1 ",
"  c black",
". c gray62",
"X c white",
/* pixels */
"   X                            ",
"                                ",
"                                ",
"                                ",
"            ........            ",
"            ........            ",
"          ..        ..          ",
"          ..        ..          ",
"        ..            ..        ",
"        ..            ..      X ",
"      ..                ..      ",
"      ..                ..      ",
"    ..       X            ..    ",
"    ..                    ..    ",
"    ..                    ..    ",
"    ..                    ..    ",
"    ..                    ..    ",
"    ..                    ..    ",
"    ..                    ..    ",
"    ..                    ..    ",
"      ..                ..      ",
"      ..          X     ..      ",
"        ..            ..        ",
"        ..            ..        ",
"          ..        ..          ",
"          ..        ..          ",
"            ........            ",
"            ........            ",
"       X                        ",
"                                ",
"                                ",
"                                "
};
