/* XPM */
static char *f07f01e77c034e20dfbb40a6e4f612f230V4DjtLkuqiGPVD[] = {
/* columns rows colors chars-per-pixel */
"128 128 12 1 ",
"  c black",
". c #263238",
"X c gray26",
"o c #76FF03",
"O c #0277BD",
"+ c #1E88E5",
"@ c #2196F3",
"# c #64B5F6",
"$ c gray62",
"% c gray74",
"& c gray88",
"* c white",
/* pixels */
"            ****                                                                                                                ",
"            ****                                                                                                                ",
"            ****                                                                                                                ",
"            ****                                                                                                                ",
"                                                                                                                                ",
"                                                                                                                                ",
"                                                                                                                                ",
"                                                                                                                                ",
"                                                                                                                                ",
"                                                                                                                                ",
"                                                                                                                                ",
"                                                                                                                                ",
"                                                                                                                                ",
"                                                                                                                                ",
"                                                                                                                                ",
"                                                                                                                                ",
"                                                $$$$$$$$$$$$$$$$$$$$$$$$$$$$$$$$                                                ",
"                                                $$$$$$$$$$$$$$$$$$$$$$$$$$$$$$$$                                                ",
"                                                $$$$$$$$$$$$$$$$$$$$$$$$$$$$$$$$                                                ",
"                                                $$$$$$$$$$$$$$$$$$$$$$$$$$$$$$$$                                                ",
"                                                $$$$$$$$$$$$$$$$$$$$$$$$$$$$$$$$                                                ",
"                                                $$$$$$$$$$$$$$$$$$$$$$$$$$$$$$$$                                                ",
"                                                $$$$$$$$$$$$$$$$$$$$$$$$$$$$$$$$                                                ",
"                                                $$$$$$$$$$$$$$$$$$$$$$$$$$$$$$$$                                                ",
"                                        $$$$$$$$                                $$$$$$$$                                        ",
"                                        $$$$$$$$                                $$$$$$$$                                        ",
"                                        $$$$$$$$                                $$$$$$$$                                        ",
"                                        $$$$$$$$                                $$$$$$$$                                        ",
"                                        $$$$$$$$                                $$$$$$$$                                        ",
"                                        $$$$$$$$                                $$$$$$$$                                        ",
"                                        $$$$$$$$                                $$$$$$$$                                        ",
"                                        $$$$$$$$                                $$$$$$$$                                        ",
"                                $$$$$$$$                                                $$$$$$$$                                ",
"                                $$$$$$$$                                                $$$$$$$$                                ",
"                                $$$$$$$$                                                $$$$$$$$                                ",
"                                $$$$$$$$                                                $$$$$$$$                                ",
"                                $$$$$$$$                                                $$$$$$$$                        ****    ",
"                                $$$$$$$$                                                $$$$$$$$                        ****    ",
"                                $$$$$$$$                                                $$$$$$$$                        ****    ",
"                                $$$$$$$$                                                $$$$$$$$                        ****    ",
"                        $$$$$$$$                            OOOOOOOOOOOO                        $$$$$$$$                        ",
"                        $$$$$$$$                            OOOOOOOOOOOO                        $$$$$$$$                        ",
"                        $$$$$$$$                            OOOOOOOOOOOO                        $$$$$$$$                        ",
"                        $$$$$$$$                            OOOOOOOOOOOO                        $$$$$$$$                        ",
"                        $$$$$$$$                        OOOO############OOOO                    $$$$$$$$                        ",
"                        $$$$$$$$                        OOOO############OOOO                    $$$$$$$$                        ",
"                        $$$$$$$$                        OOOO############OOOO                    $$$$$$$$                        ",
"                        $$$$$$$$                        OOOO############OOOO                    $$$$$$$$                        ",
"                $$$$$$$$                            OOOO####@@@@@@@@@@@@@@@@OOOO                        $$$$$$$$                ",
"                $$$$$$$$                            OOOO####@@@@@@@@@@@@@@@@OOOO                        $$$$$$$$                ",
"                $$$$$$$$                            OOOO####@@@@@@@@@@@@@@@@OOOO                        $$$$$$$$                ",
"                $$$$$$$$                            OOOO####@@@@@@@@@@@@@@@@OOOO                        $$$$$$$$                ",
"                $$$$$$$$                        OOOO####@@@@@@@@@@@@@@@@@@@@++++OOOO                    $$$$$$$$                ",
"                $$$$$$$$                        OOOO####@@@@@@@@@@@@@@@@@@@@++++OOOO                    $$$$$$$$                ",
"                $$$$$$$$                        OOOO####@@@@@@@@@@@@@@@@@@@@++++OOOO                    $$$$$$$$                ",
"                $$$$$$$$                        OOOO####@@@@@@@@@@@@@@@@@@@@++++OOOO                    $$$$$$$$                ",
"                $$$$$$$$                        OOOO####@@@@@@@@@@@@@@@@@@@@++++OOOO                    $$$$$$$$                ",
"                $$$$$$$$                        OOOO####@@@@@@@@@@@@@@@@@@@@++++OOOO                    $$$$$$$$                ",
"                $$$$$$$$                        OOOO####@@@@@@@@@@@@@@@@@@@@++++OOOO                    $$$$$$$$                ",
"                $$$$$$$$                        OOOO####@@@@@@@@@@@@@@@@@@@@++++OOOO                    $$$$$$$$                ",
"                $$$$$$$$                    OOOO####@@@@@@@@oooooooooooo@@@@@@@@++++OOOO                $$$$$$$$                ",
"                $$$$$$$$                    OOOO####@@@@@@@@oooooooooooo@@@@@@@@++++OOOO                $$$$$$$$                ",
"                $$$$$$$$                    OOOO####@@@@@@@@oooooooooooo@@@@@@@@++++OOOO                $$$$$$$$                ",
"                $$$$$$$$                    OOOO####@@@@@@@@oooooooooooo@@@@@@@@++++OOOO                $$$$$$$$                ",
"                $$$$$$$$                    OOOO++++++++oooo    oooo    oooo++++++++OOOO                $$$$$$$$                ",
"                $$$$$$$$                    OOOO++++++++oooo    oooo    oooo++++++++OOOO                $$$$$$$$                ",
"                $$$$$$$$                    OOOO++++++++oooo    oooo    oooo++++++++OOOO                $$$$$$$$                ",
"                $$$$$$$$                    OOOO++++++++oooo    oooo    oooo++++++++OOOO                $$$$$$$$                ",
"                $$$$$$$$            XXXXXXXXXXXXXXXXXXXXooooooooooooooooooooXXXXXXXXXXXXXXXXXXXX        $$$$$$$$                ",
"                $$$$$$$$            XXXXXXXXXXXXXXXXXXXXooooooooooooooooooooXXXXXXXXXXXXXXXXXXXX        $$$$$$$$                ",
"                $$$$$$$$            XXXXXXXXXXXXXXXXXXXXooooooooooooooooooooXXXXXXXXXXXXXXXXXXXX        $$$$$$$$                ",
"                $$$$$$$$            XXXXXXXXXXXXXXXXXXXXooooooooooooooooooooXXXXXXXXXXXXXXXXXXXX        $$$$$$$$                ",
"                $$$$$$$$    XXXXXXXX&&&&&&&&&&&&&&&&&&&&XXXXXXXXXXXXXXXXXXXX&&&&&&&&&&&&&&&&%%%%XXXXXXXX$$$$$$$$                ",
"                $$$$$$$$    XXXXXXXX&&&&&&&&&&&&&&&&&&&&XXXXXXXXXXXXXXXXXXXX&&&&&&&&&&&&&&&&%%%%XXXXXXXX$$$$$$$$                ",
"                $$$$$$$$    XXXXXXXX&&&&&&&&&&&&&&&&&&&&XXXXXXXXXXXXXXXXXXXX&&&&&&&&&&&&&&&&%%%%XXXXXXXX$$$$$$$$                ",
"                $$$$$$$$    XXXXXXXX&&&&&&&&&&&&&&&&&&&&XXXXXXXXXXXXXXXXXXXX&&&&&&&&&&&&&&&&%%%%XXXXXXXX$$$$$$$$                ",
"                $$$$$$$$....................................................................................$$$$                ",
"                $$$$$$$$....................................................................................$$$$                ",
"                $$$$$$$$....................................................................................$$$$                ",
"                $$$$$$$$....................................................................................$$$$                ",
"                    ............................................................................................                ",
"                    ............................................................................................                ",
"                    ............................................................................................                ",
"                    ............................................................................................                ",
"                        $$$$XXXXXXXX&&&&&&&&&&&&&&&&&&&&&&&&&&&&&&&&&&&&&&&&&&&&&&&&&&&&&&&&&&&&XXXXXXXX                        ",
"                        $$$$XXXXXXXX&&&&&&&&&&&&&&&&&&&&&&&&&&&&&&&&&&&&&&&&&&&&&&&&&&&&&&&&&&&&XXXXXXXX                        ",
"                        $$$$XXXXXXXX&&&&&&&&&&&&&&&&&&&&&&&&&&&&&&&&&&&&&&&&&&&&&&&&&&&&&&&&&&&&XXXXXXXX                        ",
"                        $$$$XXXXXXXX&&&&&&&&&&&&&&&&&&&&&&&&&&&&&&&&&&&&&&&&&&&&&&&&&&&&&&&&&&&&XXXXXXXX                        ",
"                                $$$$XXXXXXXX%%%%%%%%%%%%&&&&&&&&&&&&&&&&&&&&%%%%%%%%%%%%XXXXXXXX                                ",
"                                $$$$XXXXXXXX%%%%%%%%%%%%&&&&&&&&&&&&&&&&&&&&%%%%%%%%%%%%XXXXXXXX                                ",
"                                $$$$XXXXXXXX%%%%%%%%%%%%&&&&&&&&&&&&&&&&&&&&%%%%%%%%%%%%XXXXXXXX                                ",
"                                $$$$XXXXXXXX%%%%%%%%%%%%&&&&&&&&&&&&&&&&&&&&%%%%%%%%%%%%XXXXXXXX                                ",
"                                $$$$$$$$    XXXXXXXXXXXX%%%%%%%%%%%%%%%%%%%%XXXXXXXXXXXX$$$$$$$$                                ",
"                                $$$$$$$$    XXXXXXXXXXXX%%%%%%%%%%%%%%%%%%%%XXXXXXXXXXXX$$$$$$$$                                ",
"                                $$$$$$$$    XXXXXXXXXXXX%%%%%%%%%%%%%%%%%%%%XXXXXXXXXXXX$$$$$$$$                                ",
"                                $$$$$$$$    XXXXXXXXXXXX%%%%%%%%%%%%%%%%%%%%XXXXXXXXXXXX$$$$$$$$                                ",
"                                        $$$$$$$$        XXXXXXXXXXXXXXXXXXXX    $$$$$$$$                                        ",
"                                        $$$$$$$$        XXXXXXXXXXXXXXXXXXXX    $$$$$$$$                                        ",
"                                        $$$$$$$$        XXXXXXXXXXXXXXXXXXXX    $$$$$$$$                                        ",
"                                        $$$$$$$$        XXXXXXXXXXXXXXXXXXXX    $$$$$$$$                                        ",
"                                        $$$$$$$$                                $$$$$$$$                                        ",
"                                        $$$$$$$$                                $$$$$$$$                                        ",
"                                        $$$$$$$$                                $$$$$$$$                                        ",
"                                        $$$$$$$$                                $$$$$$$$                                        ",
"                                                $$$$$$$$$$$$$$$$$$$$$$$$$$$$$$$$                                                ",
"                                                $$$$$$$$$$$$$$$$$$$$$$$$$$$$$$$$                                                ",
"                                                $$$$$$$$$$$$$$$$$$$$$$$$$$$$$$$$                                                ",
"                                                $$$$$$$$$$$$$$$$$$$$$$$$$$$$$$$$                                                ",
"                                                $$$$$$$$$$$$$$$$$$$$$$$$$$$$$$$$                                                ",
"                                                $$$$$$$$$$$$$$$$$$$$$$$$$$$$$$$$                                                ",
"                                                $$$$$$$$$$$$$$$$$$$$$$$$$$$$$$$$                                                ",
"                                                $$$$$$$$$$$$$$$$$$$$$$$$$$$$$$$$                                                ",
"                            ****                                                                                                ",
"                            ****                                                                                                ",
"                            ****                                                                                                ",
"                            ****                                                                                                ",
"                                                                                                                                ",
"                                                                                                                                ",
"                                                                                                                                ",
"                                                                                                                                ",
"                                                                                                                                ",
"                                                                                                                                ",
"                                                                                                                                ",
"                                                                                                                                ",
"                                                                                                                                ",
"                                                                                                                                ",
"                                                                                                                                ",
"                                                                                                                                "
};
