/* XPM */
static char *_73d7b79d1f64f39da7c4f23ad420616xAcVjWHTSgkQUm8B[] = {
/* columns rows colors chars-per-pixel */
"128 128 3 1 ",
"  c black",
". c gray62",
"X c white",
/* pixels */
"            XXXX                                                                                                                ",
"            XXXX                                                                                                                ",
"            XXXX                                                                                                                ",
"            XXXX                                                                                                                ",
"                                                                                                                                ",
"                                                                                                                                ",
"                                                                                                                                ",
"                                                                                                                                ",
"                                                                                                                                ",
"                                                                                                                                ",
"                                                                                                                                ",
"                                                                                                                                ",
"                                                                                                                                ",
"                                                                                                                                ",
"                                                                                                                                ",
"                                                                                                                                ",
"                                                ................................                                                ",
"                                                ................................                                                ",
"                                                ................................                                                ",
"                                                ................................                                                ",
"                                                ................................                                                ",
"                                                ................................                                                ",
"                                                ................................                                                ",
"                                                ................................                                                ",
"                                        ........                                ........                                        ",
"                                        ........                                ........                                        ",
"                                        ........                                ........                                        ",
"                                        ........                                ........                                        ",
"                                        ........                                ........                                        ",
"                                        ........                                ........                                        ",
"                                        ........                                ........                                        ",
"                                        ........                                ........                                        ",
"                                ........                                                ........                                ",
"                                ........                                                ........                                ",
"                                ........                                                ........                                ",
"                                ........                                                ........                                ",
"                                ........                                                ........                        XXXX    ",
"                                ........                                                ........                        XXXX    ",
"                                ........                                                ........                        XXXX    ",
"                                ........                                                ........                        XXXX    ",
"                        ........                                                                ........                        ",
"                        ........                                                                ........                        ",
"                        ........                                                                ........                        ",
"                        ........                                                                ........                        ",
"                        ........                                                                ........                        ",
"                        ........                                                                ........                        ",
"                        ........                                                                ........                        ",
"                        ........                                                                ........                        ",
"                ........                            XXXX                                                ........                ",
"                ........                            XXXX                                                ........                ",
"                ........                            XXXX                                                ........                ",
"                ........                            XXXX                                                ........                ",
"                ........                                                                                ........                ",
"                ........                                                                                ........                ",
"                ........                                                                                ........                ",
"                ........                                                                                ........                ",
"                ........                                                                                ........                ",
"                ........                                                                                ........                ",
"                ........                                                                                ........                ",
"                ........                                                                                ........                ",
"                ........                                                                                ........                ",
"                ........                                                                                ........                ",
"                ........                                                                                ........                ",
"                ........                                                                                ........                ",
"                ........                                                                                ........                ",
"                ........                                                                                ........                ",
"                ........                                                                                ........                ",
"                ........                                                                                ........                ",
"                ........                                                                                ........                ",
"                ........                                                                                ........                ",
"                ........                                                                                ........                ",
"                ........                                                                                ........                ",
"                ........                                                                                ........                ",
"                ........                                                                                ........                ",
"                ........                                                                                ........                ",
"                ........                                                                                ........                ",
"                ........                                                                                ........                ",
"                ........                                                                                ........                ",
"                ........                                                                                ........                ",
"                ........                                                                                ........                ",
"                        ........                                                                ........                        ",
"                        ........                                                                ........                        ",
"                        ........                                                                ........                        ",
"                        ........                                                                ........                        ",
"                        ........                                        XXXX                    ........                        ",
"                        ........                                        XXXX                    ........                        ",
"                        ........                                        XXXX                    ........                        ",
"                        ........                                        XXXX                    ........                        ",
"                                ........                                                ........                                ",
"                                ........                                                ........                                ",
"                                ........                                                ........                                ",
"                                ........                                                ........                                ",
"                                ........                                                ........                                ",
"                                ........                                                ........                                ",
"                                ........                                                ........                                ",
"                                ........                                                ........                                ",
"                                        ........                                ........                                        ",
"                                        ........                                ........                                        ",
"                                        ........                                ........                                        ",
"                                        ........                                ........                                        ",
"                                        ........                                ........                                        ",
"                                        ........                                ........                                        ",
"                                        ........                                ........                                        ",
"                                        ........                                ........                                        ",
"                                                ................................                                                ",
"                                                ................................                                                ",
"                                                ................................                                                ",
"                                                ................................                                                ",
"                                                ................................                                                ",
"                                                ................................                                                ",
"                                                ................................                                                ",
"                                                ................................                                                ",
"                            XXXX                                                                                                ",
"                            XXXX                                                                                                ",
"                            XXXX                                                                                                ",
"                            XXXX                                                                                                ",
"                                                                                                                                ",
"                                                                                                                                ",
"                                                                                                                                ",
"                                                                                                                                ",
"                                                                                                                                ",
"                                                                                                                                ",
"                                                                                                                                ",
"                                                                                                                                ",
"                                                                                                                                ",
"                                                                                                                                ",
"                                                                                                                                ",
"                                                                                                                                "
};
