/* XPM */
static char *_9e6f6cd950f4d9580a3138aab2f41363410Uw65YCF5JucK[] = {
/* columns rows colors chars-per-pixel */
"128 128 5 1 ",
"  c black",
". c #673AB7",
"X c #9C27B0",
"o c gray62",
"O c white",
/* pixels */
"            OOOO                                                                                                                ",
"            OOOO                                                                                                                ",
"            OOOO                                                                                                                ",
"            OOOO                                                                                                                ",
"                                                                                                                                ",
"                                                                                                                                ",
"                                                                                                                                ",
"                                                                                                                                ",
"                                                                                                                                ",
"                                                                                                                                ",
"                                                                                                                                ",
"                                                                                                                                ",
"                                                                                                                                ",
"                                                                                                                                ",
"                                                                                                                                ",
"                                                                                                                                ",
"                                                oooooooooooooooooooooooooooooooo                                                ",
"                                                oooooooooooooooooooooooooooooooo                                                ",
"                                                oooooooooooooooooooooooooooooooo                                                ",
"                                                oooooooooooooooooooooooooooooooo                                                ",
"                                                oooooooooooooooooooooooooooooooo                                                ",
"                                                oooooooooooooooooooooooooooooooo                                                ",
"                                                oooooooooooooooooooooooooooooooo                                                ",
"                                                oooooooooooooooooooooooooooooooo                                                ",
"                                        ooooooooXXXXXXXXXXXXXXXXXXXXXXXXXXXXXXXXoooooooo                                        ",
"                                        ooooooooXXXXXXXXXXXXXXXXXXXXXXXXXXXXXXXXoooooooo                                        ",
"                                        ooooooooXXXXXXXXXXXXXXXXXXXXXXXXXXXXXXXXoooooooo                                        ",
"                                        ooooooooXXXXXXXXXXXXXXXXXXXXXXXXXXXXXXXXoooooooo                                        ",
"                                        ooooooooXXXXXXXXXXXXXXXXXXXXXXXXXXXXXXXXoooooooo                                        ",
"                                        ooooooooXXXXXXXXXXXXXXXXXXXXXXXXXXXXXXXXoooooooo                                        ",
"                                        ooooooooXXXXXXXXXXXXXXXXXXXXXXXXXXXXXXXXoooooooo                                        ",
"                                        ooooooooXXXXXXXXXXXXXXXXXXXXXXXXXXXXXXXXoooooooo                                        ",
"                                ooooooooXXXXXXXXXXXXXXXXXXXXXXXXXXXXXXXXXXXXXXXXXXXXXXXXoooooooo                                ",
"                                ooooooooXXXXXXXXXXXXXXXXXXXXXXXXXXXXXXXXXXXXXXXXXXXXXXXXoooooooo                                ",
"                                ooooooooXXXXXXXXXXXXXXXXXXXXXXXXXXXXXXXXXXXXXXXXXXXXXXXXoooooooo                                ",
"                                ooooooooXXXXXXXXXXXXXXXXXXXXXXXXXXXXXXXXXXXXXXXXXXXXXXXXoooooooo                                ",
"                                ooooooooXXXX................................XXXXXXXXXXXXoooooooo                        OOOO    ",
"                                ooooooooXXXX................................XXXXXXXXXXXXoooooooo                        OOOO    ",
"                                ooooooooXXXX................................XXXXXXXXXXXXoooooooo                        OOOO    ",
"                                ooooooooXXXX................................XXXXXXXXXXXXoooooooo                        OOOO    ",
"                        ooooooooXXXXXXXX............................................XXXXXXXXXXXXoooooooo                        ",
"                        ooooooooXXXXXXXX............................................XXXXXXXXXXXXoooooooo                        ",
"                        ooooooooXXXXXXXX............................................XXXXXXXXXXXXoooooooo                        ",
"                        ooooooooXXXXXXXX............................................XXXXXXXXXXXXoooooooo                        ",
"                        ooooooooXXXX................XXXXXXXXXXXXXXXX....................XXXXXXXXoooooooo                        ",
"                        ooooooooXXXX................XXXXXXXXXXXXXXXX....................XXXXXXXXoooooooo                        ",
"                        ooooooooXXXX................XXXXXXXXXXXXXXXX....................XXXXXXXXoooooooo                        ",
"                        ooooooooXXXX................XXXXXXXXXXXXXXXX....................XXXXXXXXoooooooo                        ",
"                ooooooooXXXXXXXXXXXX............XXXXXXXXXXXXXXXXXXXXXXXXXXXX............XXXXXXXXXXXXXXXXoooooooo                ",
"                ooooooooXXXXXXXXXXXX............XXXXXXXXXXXXXXXXXXXXXXXXXXXX............XXXXXXXXXXXXXXXXoooooooo                ",
"                ooooooooXXXXXXXXXXXX............XXXXXXXXXXXXXXXXXXXXXXXXXXXX............XXXXXXXXXXXXXXXXoooooooo                ",
"                ooooooooXXXXXXXXXXXX............XXXXXXXXXXXXXXXXXXXXXXXXXXXX............XXXXXXXXXXXXXXXXoooooooo                ",
"                ooooooooXXXXXXXXXXXX........XXXXXXXXXXXXXXXXXXXXXXXXXXXXXXXXXXXX............XXXXXXXXXXXXoooooooo                ",
"                ooooooooXXXXXXXXXXXX........XXXXXXXXXXXXXXXXXXXXXXXXXXXXXXXXXXXX............XXXXXXXXXXXXoooooooo                ",
"                ooooooooXXXXXXXXXXXX........XXXXXXXXXXXXXXXXXXXXXXXXXXXXXXXXXXXX............XXXXXXXXXXXXoooooooo                ",
"                ooooooooXXXXXXXXXXXX........XXXXXXXXXXXXXXXXXXXXXXXXXXXXXXXXXXXX............XXXXXXXXXXXXoooooooo                ",
"                ooooooooXXXXXXXXXXXX........XXXXXXXXXXXXXXXXXXXXXXXXXXXXXXXXXXXX............XXXXXXXXXXXXoooooooo                ",
"                ooooooooXXXXXXXXXXXX........XXXXXXXXXXXXXXXXXXXXXXXXXXXXXXXXXXXX............XXXXXXXXXXXXoooooooo                ",
"                ooooooooXXXXXXXXXXXX........XXXXXXXXXXXXXXXXXXXXXXXXXXXXXXXXXXXX............XXXXXXXXXXXXoooooooo                ",
"                ooooooooXXXXXXXXXXXX........XXXXXXXXXXXXXXXXXXXXXXXXXXXXXXXXXXXX............XXXXXXXXXXXXoooooooo                ",
"                ooooooooXXXXXXXXXXXX............XXXXXXXXXXXX........XXXXXXXXXXXXXXXX........XXXXXXXXXXXXoooooooo                ",
"                ooooooooXXXXXXXXXXXX............XXXXXXXXXXXX........XXXXXXXXXXXXXXXX........XXXXXXXXXXXXoooooooo                ",
"                ooooooooXXXXXXXXXXXX............XXXXXXXXXXXX........XXXXXXXXXXXXXXXX........XXXXXXXXXXXXoooooooo                ",
"                ooooooooXXXXXXXXXXXX............XXXXXXXXXXXX........XXXXXXXXXXXXXXXX........XXXXXXXXXXXXoooooooo                ",
"                ooooooooXXXXXXXXXXXX................................XXXXXXXXXXXXXXXX........XXXXXXXXXXXXoooooooo                ",
"                ooooooooXXXXXXXXXXXX................................XXXXXXXXXXXXXXXX........XXXXXXXXXXXXoooooooo                ",
"                ooooooooXXXXXXXXXXXX................................XXXXXXXXXXXXXXXX........XXXXXXXXXXXXoooooooo                ",
"                ooooooooXXXXXXXXXXXX................................XXXXXXXXXXXXXXXX........XXXXXXXXXXXXoooooooo                ",
"                ooooooooXXXXXXXXXXXXXXXX............................XXXXXXXXXXXX............XXXXXXXXXXXXoooooooo                ",
"                ooooooooXXXXXXXXXXXXXXXX............................XXXXXXXXXXXX............XXXXXXXXXXXXoooooooo                ",
"                ooooooooXXXXXXXXXXXXXXXX............................XXXXXXXXXXXX............XXXXXXXXXXXXoooooooo                ",
"                ooooooooXXXXXXXXXXXXXXXX............................XXXXXXXXXXXX............XXXXXXXXXXXXoooooooo                ",
"                ooooooooXXXXXXXXXXXXXXXXXXXXXXXXXXXXXXXXXXXXXXXXXXXXXXXXXXXXXXXX............XXXXXXXXXXXXoooooooo                ",
"                ooooooooXXXXXXXXXXXXXXXXXXXXXXXXXXXXXXXXXXXXXXXXXXXXXXXXXXXXXXXX............XXXXXXXXXXXXoooooooo                ",
"                ooooooooXXXXXXXXXXXXXXXXXXXXXXXXXXXXXXXXXXXXXXXXXXXXXXXXXXXXXXXX............XXXXXXXXXXXXoooooooo                ",
"                ooooooooXXXXXXXXXXXXXXXXXXXXXXXXXXXXXXXXXXXXXXXXXXXXXXXXXXXXXXXX............XXXXXXXXXXXXoooooooo                ",
"                ooooooooXXXXXXXXXXXXXXXXXXXXXXXXXXXXXXXXXXXXXXXXXXXXXXXXXXXX............XXXXXXXXXXXXXXXXoooooooo                ",
"                ooooooooXXXXXXXXXXXXXXXXXXXXXXXXXXXXXXXXXXXXXXXXXXXXXXXXXXXX............XXXXXXXXXXXXXXXXoooooooo                ",
"                ooooooooXXXXXXXXXXXXXXXXXXXXXXXXXXXXXXXXXXXXXXXXXXXXXXXXXXXX............XXXXXXXXXXXXXXXXoooooooo                ",
"                ooooooooXXXXXXXXXXXXXXXXXXXXXXXXXXXXXXXXXXXXXXXXXXXXXXXXXXXX............XXXXXXXXXXXXXXXXoooooooo                ",
"                        ooooooooXXXXXXXXXXXXXXXXXXXXXXXXXXXXXXXXXXXXXXXXXXXX............XXXXXXXXoooooooo                        ",
"                        ooooooooXXXXXXXXXXXXXXXXXXXXXXXXXXXXXXXXXXXXXXXXXXXX............XXXXXXXXoooooooo                        ",
"                        ooooooooXXXXXXXXXXXXXXXXXXXXXXXXXXXXXXXXXXXXXXXXXXXX............XXXXXXXXoooooooo                        ",
"                        ooooooooXXXXXXXXXXXXXXXXXXXXXXXXXXXXXXXXXXXXXXXXXXXX............XXXXXXXXoooooooo                        ",
"                        ooooooooXXXXXXXXXXXXXXXXXXXXXXXXXXXXXXXXXXXXXXXX............XXXXXXXXXXXXoooooooo                        ",
"                        ooooooooXXXXXXXXXXXXXXXXXXXXXXXXXXXXXXXXXXXXXXXX............XXXXXXXXXXXXoooooooo                        ",
"                        ooooooooXXXXXXXXXXXXXXXXXXXXXXXXXXXXXXXXXXXXXXXX............XXXXXXXXXXXXoooooooo                        ",
"                        ooooooooXXXXXXXXXXXXXXXXXXXXXXXXXXXXXXXXXXXXXXXX............XXXXXXXXXXXXoooooooo                        ",
"                                ooooooooXXXXXXXXXXXXXXXXXXXXXXXXXXXX............XXXXXXXXoooooooo                                ",
"                                ooooooooXXXXXXXXXXXXXXXXXXXXXXXXXXXX............XXXXXXXXoooooooo                                ",
"                                ooooooooXXXXXXXXXXXXXXXXXXXXXXXXXXXX............XXXXXXXXoooooooo                                ",
"                                ooooooooXXXXXXXXXXXXXXXXXXXXXXXXXXXX............XXXXXXXXoooooooo                                ",
"                                ooooooooXXXXXXXXXXXX............................XXXXXXXXoooooooo                                ",
"                                ooooooooXXXXXXXXXXXX............................XXXXXXXXoooooooo                                ",
"                                ooooooooXXXXXXXXXXXX............................XXXXXXXXoooooooo                                ",
"                                ooooooooXXXXXXXXXXXX............................XXXXXXXXoooooooo                                ",
"                                        oooooooo............................XXXXoooooooo                                        ",
"                                        oooooooo............................XXXXoooooooo                                        ",
"                                        oooooooo............................XXXXoooooooo                                        ",
"                                        oooooooo............................XXXXoooooooo                                        ",
"                                        oooooooo............XXXXXXXXXXXXXXXXXXXXoooooooo                                        ",
"                                        oooooooo............XXXXXXXXXXXXXXXXXXXXoooooooo                                        ",
"                                        oooooooo............XXXXXXXXXXXXXXXXXXXXoooooooo                                        ",
"                                        oooooooo............XXXXXXXXXXXXXXXXXXXXoooooooo                                        ",
"                                                oooooooooooooooooooooooooooooooo                                                ",
"                                                oooooooooooooooooooooooooooooooo                                                ",
"                                                oooooooooooooooooooooooooooooooo                                                ",
"                                                oooooooooooooooooooooooooooooooo                                                ",
"                                                oooooooooooooooooooooooooooooooo                                                ",
"                                                oooooooooooooooooooooooooooooooo                                                ",
"                                                oooooooooooooooooooooooooooooooo                                                ",
"                                                oooooooooooooooooooooooooooooooo                                                ",
"                            OOOO                                                                                                ",
"                            OOOO                                                                                                ",
"                            OOOO                                                                                                ",
"                            OOOO                                                                                                ",
"                                                                                                                                ",
"                                                                                                                                ",
"                                                                                                                                ",
"                                                                                                                                ",
"                                                                                                                                ",
"                                                                                                                                ",
"                                                                                                                                ",
"                                                                                                                                ",
"                                                                                                                                ",
"                                                                                                                                ",
"                                                                                                                                ",
"                                                                                                                                "
};
