/* XPM */
static char *_e8ec660eff64b60fc3a7618fa1513f3lRuNU94lfvBNwro4[] = {
/* columns rows colors chars-per-pixel */
"128 128 14 1 ",
"  c black",
". c #263238",
"X c gray26",
"o c #76FF03",
"O c #673AB7",
"+ c #0277BD",
"@ c #9C27B0",
"# c #1E88E5",
"$ c #2196F3",
"% c #64B5F6",
"& c gray62",
"* c gray74",
"= c gray88",
"- c white",
/* pixels */
"            ----                                                                                                                ",
"            ----                                                                                                                ",
"            ----                                                                                                                ",
"            ----                                                                                                                ",
"                                                                                                                                ",
"                                                                                                                                ",
"                                                                                                                                ",
"                                                                                                                                ",
"                                                                                                                                ",
"                                                                                                                                ",
"                                                                                                                                ",
"                                                                                                                                ",
"                                                                                                                                ",
"                                                                                                                                ",
"                                                                                                                                ",
"                                                                                                                                ",
"                                                &&&&&&&&&&&&&&&&&&&&&&&&&&&&&&&&                                                ",
"                                                &&&&&&&&&&&&&&&&&&&&&&&&&&&&&&&&                                                ",
"                                                &&&&&&&&&&&&&&&&&&&&&&&&&&&&&&&&                                                ",
"                                                &&&&&&&&&&&&&&&&&&&&&&&&&&&&&&&&                                                ",
"                                                &&&&&&&&&&&&&&&&&&&&&&&&&&&&&&&&                                                ",
"                                                &&&&&&&&&&&&&&&&&&&&&&&&&&&&&&&&                                                ",
"                                                &&&&&&&&&&&&&&&&&&&&&&&&&&&&&&&&                                                ",
"                                                &&&&&&&&&&&&&&&&&&&&&&&&&&&&&&&&                                                ",
"                                        &&&&&&&&@@@@@@@@@@@@@@@@@@@@@@@@@@@@@@@@&&&&&&&&                                        ",
"                                        &&&&&&&&@@@@@@@@@@@@@@@@@@@@@@@@@@@@@@@@&&&&&&&&                                        ",
"                                        &&&&&&&&@@@@@@@@@@@@@@@@@@@@@@@@@@@@@@@@&&&&&&&&                                        ",
"                                        &&&&&&&&@@@@@@@@@@@@@@@@@@@@@@@@@@@@@@@@&&&&&&&&                                        ",
"                                        &&&&&&&&@@@@@@@@@@@@@@@@@@@@@@@@@@@@@@@@&&&&&&&&                                        ",
"                                        &&&&&&&&@@@@@@@@@@@@@@@@@@@@@@@@@@@@@@@@&&&&&&&&                                        ",
"                                        &&&&&&&&@@@@@@@@@@@@@@@@@@@@@@@@@@@@@@@@&&&&&&&&                                        ",
"                                        &&&&&&&&@@@@@@@@@@@@@@@@@@@@@@@@@@@@@@@@&&&&&&&&                                        ",
"                                &&&&&&&&@@@@@@@@@@@@@@@@@@@@@@@@@@@@@@@@@@@@@@@@@@@@@@@@&&&&&&&&                                ",
"                                &&&&&&&&@@@@@@@@@@@@@@@@@@@@@@@@@@@@@@@@@@@@@@@@@@@@@@@@&&&&&&&&                                ",
"                                &&&&&&&&@@@@@@@@@@@@@@@@@@@@@@@@@@@@@@@@@@@@@@@@@@@@@@@@&&&&&&&&                                ",
"                                &&&&&&&&@@@@@@@@@@@@@@@@@@@@@@@@@@@@@@@@@@@@@@@@@@@@@@@@&&&&&&&&                                ",
"                                &&&&&&&&@@@@OOOOOOOOOOOOOOOOOOOOOOOOOOOOOOOO@@@@@@@@@@@@&&&&&&&&                        ----    ",
"                                &&&&&&&&@@@@OOOOOOOOOOOOOOOOOOOOOOOOOOOOOOOO@@@@@@@@@@@@&&&&&&&&                        ----    ",
"                                &&&&&&&&@@@@OOOOOOOOOOOOOOOOOOOOOOOOOOOOOOOO@@@@@@@@@@@@&&&&&&&&                        ----    ",
"                                &&&&&&&&@@@@OOOOOOOOOOOOOOOOOOOOOOOOOOOOOOOO@@@@@@@@@@@@&&&&&&&&                        ----    ",
"                        &&&&&&&&@@@@@@@@OOOOOOOOOOOOOOOOOOOO++++++++++++OOOOOOOOOOOO@@@@@@@@@@@@&&&&&&&&                        ",
"                        &&&&&&&&@@@@@@@@OOOOOOOOOOOOOOOOOOOO++++++++++++OOOOOOOOOOOO@@@@@@@@@@@@&&&&&&&&                        ",
"                        &&&&&&&&@@@@@@@@OOOOOOOOOOOOOOOOOOOO++++++++++++OOOOOOOOOOOO@@@@@@@@@@@@&&&&&&&&                        ",
"                        &&&&&&&&@@@@@@@@OOOOOOOOOOOOOOOOOOOO++++++++++++OOOOOOOOOOOO@@@@@@@@@@@@&&&&&&&&                        ",
"                        &&&&&&&&@@@@OOOOOOOOOOOOOOOO@@@@++++%%%%%%%%%%%%++++OOOOOOOOOOOO@@@@@@@@&&&&&&&&                        ",
"                        &&&&&&&&@@@@OOOOOOOOOOOOOOOO@@@@++++%%%%%%%%%%%%++++OOOOOOOOOOOO@@@@@@@@&&&&&&&&                        ",
"                        &&&&&&&&@@@@OOOOOOOOOOOOOOOO@@@@++++%%%%%%%%%%%%++++OOOOOOOOOOOO@@@@@@@@&&&&&&&&                        ",
"                        &&&&&&&&@@@@OOOOOOOOOOOOOOOO@@@@++++%%%%%%%%%%%%++++OOOOOOOOOOOO@@@@@@@@&&&&&&&&                        ",
"                &&&&&&&&@@@@@@@@@@@@OOOOOOOOOOOO@@@@++++%%%%$$$$$$$$$$$$$$$$++++OOOOOOOO@@@@@@@@@@@@@@@@&&&&&&&&                ",
"                &&&&&&&&@@@@@@@@@@@@OOOOOOOOOOOO@@@@++++%%%%$$$$$$$$$$$$$$$$++++OOOOOOOO@@@@@@@@@@@@@@@@&&&&&&&&                ",
"                &&&&&&&&@@@@@@@@@@@@OOOOOOOOOOOO@@@@++++%%%%$$$$$$$$$$$$$$$$++++OOOOOOOO@@@@@@@@@@@@@@@@&&&&&&&&                ",
"                &&&&&&&&@@@@@@@@@@@@OOOOOOOOOOOO@@@@++++%%%%$$$$$$$$$$$$$$$$++++OOOOOOOO@@@@@@@@@@@@@@@@&&&&&&&&                ",
"                &&&&&&&&@@@@@@@@@@@@OOOOOOOO@@@@++++%%%%$$$$$$$$$$$$$$$$$$$$####++++OOOOOOOO@@@@@@@@@@@@&&&&&&&&                ",
"                &&&&&&&&@@@@@@@@@@@@OOOOOOOO@@@@++++%%%%$$$$$$$$$$$$$$$$$$$$####++++OOOOOOOO@@@@@@@@@@@@&&&&&&&&                ",
"                &&&&&&&&@@@@@@@@@@@@OOOOOOOO@@@@++++%%%%$$$$$$$$$$$$$$$$$$$$####++++OOOOOOOO@@@@@@@@@@@@&&&&&&&&                ",
"                &&&&&&&&@@@@@@@@@@@@OOOOOOOO@@@@++++%%%%$$$$$$$$$$$$$$$$$$$$####++++OOOOOOOO@@@@@@@@@@@@&&&&&&&&                ",
"                &&&&&&&&@@@@@@@@@@@@OOOOOOOO@@@@++++%%%%$$$$$$$$$$$$$$$$$$$$####++++OOOOOOOO@@@@@@@@@@@@&&&&&&&&                ",
"                &&&&&&&&@@@@@@@@@@@@OOOOOOOO@@@@++++%%%%$$$$$$$$$$$$$$$$$$$$####++++OOOOOOOO@@@@@@@@@@@@&&&&&&&&                ",
"                &&&&&&&&@@@@@@@@@@@@OOOOOOOO@@@@++++%%%%$$$$$$$$$$$$$$$$$$$$####++++OOOOOOOO@@@@@@@@@@@@&&&&&&&&                ",
"                &&&&&&&&@@@@@@@@@@@@OOOOOOOO@@@@++++%%%%$$$$$$$$$$$$$$$$$$$$####++++OOOOOOOO@@@@@@@@@@@@&&&&&&&&                ",
"                &&&&&&&&@@@@@@@@@@@@OOOOOOOO++++%%%%$$$$$$$$oooooooooooo$$$$$$$$####++++OOOO@@@@@@@@@@@@&&&&&&&&                ",
"                &&&&&&&&@@@@@@@@@@@@OOOOOOOO++++%%%%$$$$$$$$oooooooooooo$$$$$$$$####++++OOOO@@@@@@@@@@@@&&&&&&&&                ",
"                &&&&&&&&@@@@@@@@@@@@OOOOOOOO++++%%%%$$$$$$$$oooooooooooo$$$$$$$$####++++OOOO@@@@@@@@@@@@&&&&&&&&                ",
"                &&&&&&&&@@@@@@@@@@@@OOOOOOOO++++%%%%$$$$$$$$oooooooooooo$$$$$$$$####++++OOOO@@@@@@@@@@@@&&&&&&&&                ",
"                &&&&&&&&@@@@@@@@@@@@OOOOOOOO++++########oooo    oooo    oooo########++++OOOO@@@@@@@@@@@@&&&&&&&&                ",
"                &&&&&&&&@@@@@@@@@@@@OOOOOOOO++++########oooo    oooo    oooo########++++OOOO@@@@@@@@@@@@&&&&&&&&                ",
"                &&&&&&&&@@@@@@@@@@@@OOOOOOOO++++########oooo    oooo    oooo########++++OOOO@@@@@@@@@@@@&&&&&&&&                ",
"                &&&&&&&&@@@@@@@@@@@@OOOOOOOO++++########oooo    oooo    oooo########++++OOOO@@@@@@@@@@@@&&&&&&&&                ",
"                &&&&&&&&@@@@@@@@@@@@XXXXXXXXXXXXXXXXXXXXooooooooooooooooooooXXXXXXXXXXXXXXXXXXXX@@@@@@@@&&&&&&&&                ",
"                &&&&&&&&@@@@@@@@@@@@XXXXXXXXXXXXXXXXXXXXooooooooooooooooooooXXXXXXXXXXXXXXXXXXXX@@@@@@@@&&&&&&&&                ",
"                &&&&&&&&@@@@@@@@@@@@XXXXXXXXXXXXXXXXXXXXooooooooooooooooooooXXXXXXXXXXXXXXXXXXXX@@@@@@@@&&&&&&&&                ",
"                &&&&&&&&@@@@@@@@@@@@XXXXXXXXXXXXXXXXXXXXooooooooooooooooooooXXXXXXXXXXXXXXXXXXXX@@@@@@@@&&&&&&&&                ",
"                &&&&&&&&@@@@XXXXXXXX====================XXXXXXXXXXXXXXXXXXXX================****XXXXXXXX&&&&&&&&                ",
"                &&&&&&&&@@@@XXXXXXXX====================XXXXXXXXXXXXXXXXXXXX================****XXXXXXXX&&&&&&&&                ",
"                &&&&&&&&@@@@XXXXXXXX====================XXXXXXXXXXXXXXXXXXXX================****XXXXXXXX&&&&&&&&                ",
"                &&&&&&&&@@@@XXXXXXXX====================XXXXXXXXXXXXXXXXXXXX================****XXXXXXXX&&&&&&&&                ",
"                &&&&&&&&....................................................................................&&&&                ",
"                &&&&&&&&....................................................................................&&&&                ",
"                &&&&&&&&....................................................................................&&&&                ",
"                &&&&&&&&....................................................................................&&&&                ",
"                    ............................................................................................                ",
"                    ............................................................................................                ",
"                    ............................................................................................                ",
"                    ............................................................................................                ",
"                        &&&&XXXXXXXX============================================================XXXXXXXX                        ",
"                        &&&&XXXXXXXX============================================================XXXXXXXX                        ",
"                        &&&&XXXXXXXX============================================================XXXXXXXX                        ",
"                        &&&&XXXXXXXX============================================================XXXXXXXX                        ",
"                                &&&&XXXXXXXX************====================************XXXXXXXX                                ",
"                                &&&&XXXXXXXX************====================************XXXXXXXX                                ",
"                                &&&&XXXXXXXX************====================************XXXXXXXX                                ",
"                                &&&&XXXXXXXX************====================************XXXXXXXX                                ",
"                                &&&&&&&&@@@@XXXXXXXXXXXX********************XXXXXXXXXXXX&&&&&&&&                                ",
"                                &&&&&&&&@@@@XXXXXXXXXXXX********************XXXXXXXXXXXX&&&&&&&&                                ",
"                                &&&&&&&&@@@@XXXXXXXXXXXX********************XXXXXXXXXXXX&&&&&&&&                                ",
"                                &&&&&&&&@@@@XXXXXXXXXXXX********************XXXXXXXXXXXX&&&&&&&&                                ",
"                                        &&&&&&&&OOOOOOOOXXXXXXXXXXXXXXXXXXXX@@@@&&&&&&&&                                        ",
"                                        &&&&&&&&OOOOOOOOXXXXXXXXXXXXXXXXXXXX@@@@&&&&&&&&                                        ",
"                                        &&&&&&&&OOOOOOOOXXXXXXXXXXXXXXXXXXXX@@@@&&&&&&&&                                        ",
"                                        &&&&&&&&OOOOOOOOXXXXXXXXXXXXXXXXXXXX@@@@&&&&&&&&                                        ",
"                                        &&&&&&&&OOOOOOOOOOOO@@@@@@@@@@@@@@@@@@@@&&&&&&&&                                        ",
"                                        &&&&&&&&OOOOOOOOOOOO@@@@@@@@@@@@@@@@@@@@&&&&&&&&                                        ",
"                                        &&&&&&&&OOOOOOOOOOOO@@@@@@@@@@@@@@@@@@@@&&&&&&&&                                        ",
"                                        &&&&&&&&OOOOOOOOOOOO@@@@@@@@@@@@@@@@@@@@&&&&&&&&                                        ",
"                                                &&&&&&&&&&&&&&&&&&&&&&&&&&&&&&&&                                                ",
"                                                &&&&&&&&&&&&&&&&&&&&&&&&&&&&&&&&                                                ",
"                                                &&&&&&&&&&&&&&&&&&&&&&&&&&&&&&&&                                                ",
"                                                &&&&&&&&&&&&&&&&&&&&&&&&&&&&&&&&                                                ",
"                                                &&&&&&&&&&&&&&&&&&&&&&&&&&&&&&&&                                                ",
"                                                &&&&&&&&&&&&&&&&&&&&&&&&&&&&&&&&                                                ",
"                                                &&&&&&&&&&&&&&&&&&&&&&&&&&&&&&&&                                                ",
"                                                &&&&&&&&&&&&&&&&&&&&&&&&&&&&&&&&                                                ",
"                            ----                                                                                                ",
"                            ----                                                                                                ",
"                            ----                                                                                                ",
"                            ----                                                                                                ",
"                                                                                                                                ",
"                                                                                                                                ",
"                                                                                                                                ",
"                                                                                                                                ",
"                                                                                                                                ",
"                                                                                                                                ",
"                                                                                                                                ",
"                                                                                                                                ",
"                                                                                                                                ",
"                                                                                                                                ",
"                                                                                                                                ",
"                                                                                                                                "
};
