/* XPM */
static char *_6ebae2fa00747edbe27cc5a93ffb8eeQYQa6E5vSv6OndVa[] = {
/* columns rows colors chars-per-pixel */
"32 32 6 1 ",
"  c black",
". c gray26",
"X c gray38",
"o c gray46",
"O c gray62",
"+ c gray98",
/* pixels */
"   +       ........             ",
"          .OOOOOOOO..           ",
"       ...OOOOOooOOOO.          ",
"      .OOOOOOOOooOOOO.          ",
"     .OOOOOOOOOOOOOOOO.         ",
"     .OOOXOOOOOOOOOOOO.         ",
"     .OOOXooOOOOOOOOOO.         ",
"     .OOOOooOOOoXXXOOOO.        ",
"    .OOOOOOOOOOoooXXOOO.        ",
"    .OOOoOOOOOOooooOOOOO.     + ",
"   .OOOooOOOOOOOOoooOOOOO.      ",
"   .OOOOOOOOOOOOOOOOOOOOO.      ",
"   .OOOOOOOOOOOOOOOOOOOOOO.     ",
"   .OOOOOOooooOOOOOOOOOOOO.     ",
"   .OOOOOOXooooOOOXOOOOOOO.     ",
"  .OOOOOOOXXoooOOOXOOOOOOOO.    ",
"  .OOOOoOOOXXOOOOOOOOooOOOO.    ",
"  .OOOOoOOOOOOOOOOOOOooOOOO.    ",
"  .OOOXooOOOOOOOOOOOXooOOOO.    ",
"   .OOXXooOOOOoXOOOOXXXOOOXX.   ",
"   .OOOXXOOOOOooOOOOOOOOOooX.   ",
"   .OOOOOOOOOOOOOOOOOOOOOooo.   ",
"    .OOOOOOOOOOOooooXOOOOO..    ",
"     ...OOOOOOOOOXXXOOOOO.      ",
"        ..OOOOOOOOOOOOOO.       ",
"          ...OOOOOOO....        ",
"             .......            ",
"                                ",
"       +                        ",
"                                ",
"                                ",
"                                "
};
