/* XPM */
static char *_1dfb2d4bea74fa0c5ff8e7845547dd5vGY6mxbaXp16UmsD[] = {
/* columns rows colors chars-per-pixel */
"128 128 6 1 ",
"  c black",
". c gray26",
"X c gray38",
"o c gray46",
"O c gray62",
"+ c gray98",
/* pixels */
"            ++++                            ................................                                                    ",
"            ++++                            ................................                                                    ",
"            ++++                            ................................                                                    ",
"            ++++                            ................................                                                    ",
"                                        ....OOOOOOOOOOOOOOOOOOOOOOOOOOOOOOOO........                                            ",
"                                        ....OOOOOOOOOOOOOOOOOOOOOOOOOOOOOOOO........                                            ",
"                                        ....OOOOOOOOOOOOOOOOOOOOOOOOOOOOOOOO........                                            ",
"                                        ....OOOOOOOOOOOOOOOOOOOOOOOOOOOOOOOO........                                            ",
"                            ............OOOOOOOOOOOOOOOOOOOOooooooooOOOOOOOOOOOOOOOO....                                        ",
"                            ............OOOOOOOOOOOOOOOOOOOOooooooooOOOOOOOOOOOOOOOO....                                        ",
"                            ............OOOOOOOOOOOOOOOOOOOOooooooooOOOOOOOOOOOOOOOO....                                        ",
"                            ............OOOOOOOOOOOOOOOOOOOOooooooooOOOOOOOOOOOOOOOO....                                        ",
"                        ....OOOOOOOOOOOOOOOOOOOOOOOOOOOOOOOOooooooooOOOOOOOOOOOOOOOO....                                        ",
"                        ....OOOOOOOOOOOOOOOOOOOOOOOOOOOOOOOOooooooooOOOOOOOOOOOOOOOO....                                        ",
"                        ....OOOOOOOOOOOOOOOOOOOOOOOOOOOOOOOOooooooooOOOOOOOOOOOOOOOO....                                        ",
"                        ....OOOOOOOOOOOOOOOOOOOOOOOOOOOOOOOOooooooooOOOOOOOOOOOOOOOO....                                        ",
"                    ....OOOOOOOOOOOOOOOOOOOOOOOOOOOOOOOOOOOOOOOOOOOOOOOOOOOOOOOOOOOOOOOO....                                    ",
"                    ....OOOOOOOOOOOOOOOOOOOOOOOOOOOOOOOOOOOOOOOOOOOOOOOOOOOOOOOOOOOOOOOO....                                    ",
"                    ....OOOOOOOOOOOOOOOOOOOOOOOOOOOOOOOOOOOOOOOOOOOOOOOOOOOOOOOOOOOOOOOO....                                    ",
"                    ....OOOOOOOOOOOOOOOOOOOOOOOOOOOOOOOOOOOOOOOOOOOOOOOOOOOOOOOOOOOOOOOO....                                    ",
"                    ....OOOOOOOOOOOOXXXXOOOOOOOOOOOOOOOOOOOOOOOOOOOOOOOOOOOOOOOOOOOOOOOO....                                    ",
"                    ....OOOOOOOOOOOOXXXXOOOOOOOOOOOOOOOOOOOOOOOOOOOOOOOOOOOOOOOOOOOOOOOO....                                    ",
"                    ....OOOOOOOOOOOOXXXXOOOOOOOOOOOOOOOOOOOOOOOOOOOOOOOOOOOOOOOOOOOOOOOO....                                    ",
"                    ....OOOOOOOOOOOOXXXXOOOOOOOOOOOOOOOOOOOOOOOOOOOOOOOOOOOOOOOOOOOOOOOO....                                    ",
"                    ....OOOOOOOOOOOOXXXXooooooooOOOOOOOOOOOOOOOOOOOOOOOOOOOOOOOOOOOOOOOO....                                    ",
"                    ....OOOOOOOOOOOOXXXXooooooooOOOOOOOOOOOOOOOOOOOOOOOOOOOOOOOOOOOOOOOO....                                    ",
"                    ....OOOOOOOOOOOOXXXXooooooooOOOOOOOOOOOOOOOOOOOOOOOOOOOOOOOOOOOOOOOO....                                    ",
"                    ....OOOOOOOOOOOOXXXXooooooooOOOOOOOOOOOOOOOOOOOOOOOOOOOOOOOOOOOOOOOO....                                    ",
"                    ....OOOOOOOOOOOOOOOOooooooooOOOOOOOOOOOOooooXXXXXXXXXXXXOOOOOOOOOOOOOOOO....                                ",
"                    ....OOOOOOOOOOOOOOOOooooooooOOOOOOOOOOOOooooXXXXXXXXXXXXOOOOOOOOOOOOOOOO....                                ",
"                    ....OOOOOOOOOOOOOOOOooooooooOOOOOOOOOOOOooooXXXXXXXXXXXXOOOOOOOOOOOOOOOO....                                ",
"                    ....OOOOOOOOOOOOOOOOooooooooOOOOOOOOOOOOooooXXXXXXXXXXXXOOOOOOOOOOOOOOOO....                                ",
"                ....OOOOOOOOOOOOOOOOOOOOOOOOOOOOOOOOOOOOOOOOooooooooooooXXXXXXXXOOOOOOOOOOOO....                                ",
"                ....OOOOOOOOOOOOOOOOOOOOOOOOOOOOOOOOOOOOOOOOooooooooooooXXXXXXXXOOOOOOOOOOOO....                                ",
"                ....OOOOOOOOOOOOOOOOOOOOOOOOOOOOOOOOOOOOOOOOooooooooooooXXXXXXXXOOOOOOOOOOOO....                                ",
"                ....OOOOOOOOOOOOOOOOOOOOOOOOOOOOOOOOOOOOOOOOooooooooooooXXXXXXXXOOOOOOOOOOOO....                                ",
"                ....OOOOOOOOOOOOooooOOOOOOOOOOOOOOOOOOOOOOOOooooooooooooooooOOOOOOOOOOOOOOOOOOOO....                    ++++    ",
"                ....OOOOOOOOOOOOooooOOOOOOOOOOOOOOOOOOOOOOOOooooooooooooooooOOOOOOOOOOOOOOOOOOOO....                    ++++    ",
"                ....OOOOOOOOOOOOooooOOOOOOOOOOOOOOOOOOOOOOOOooooooooooooooooOOOOOOOOOOOOOOOOOOOO....                    ++++    ",
"                ....OOOOOOOOOOOOooooOOOOOOOOOOOOOOOOOOOOOOOOooooooooooooooooOOOOOOOOOOOOOOOOOOOO....                    ++++    ",
"            ....OOOOOOOOOOOOooooooooOOOOOOOOOOOOOOOOOOOOOOOOOOOOOOOOooooooooooooOOOOOOOOOOOOOOOOOOOO....                        ",
"            ....OOOOOOOOOOOOooooooooOOOOOOOOOOOOOOOOOOOOOOOOOOOOOOOOooooooooooooOOOOOOOOOOOOOOOOOOOO....                        ",
"            ....OOOOOOOOOOOOooooooooOOOOOOOOOOOOOOOOOOOOOOOOOOOOOOOOooooooooooooOOOOOOOOOOOOOOOOOOOO....                        ",
"            ....OOOOOOOOOOOOooooooooOOOOOOOOOOOOOOOOOOOOOOOOOOOOOOOOooooooooooooOOOOOOOOOOOOOOOOOOOO....                        ",
"            ....OOOOOOOOOOOOOOOOOOOOOOOOOOOOOOOOOOOOOOOOOOOOOOOOOOOOOOOOOOOOOOOOOOOOOOOOOOOOOOOOOOOO....                        ",
"            ....OOOOOOOOOOOOOOOOOOOOOOOOOOOOOOOOOOOOOOOOOOOOOOOOOOOOOOOOOOOOOOOOOOOOOOOOOOOOOOOOOOOO....                        ",
"            ....OOOOOOOOOOOOOOOOOOOOOOOOOOOOOOOOOOOOOOOOOOOOOOOOOOOOOOOOOOOOOOOOOOOOOOOOOOOOOOOOOOOO....                        ",
"            ....OOOOOOOOOOOOOOOOOOOOOOOOOOOOOOOOOOOOOOOOOOOOOOOOOOOOOOOOOOOOOOOOOOOOOOOOOOOOOOOOOOOO....                        ",
"            ....OOOOOOOOOOOOOOOOOOOOOOOOOOOOOOOOOOOOOOOOOOOOOOOOOOOOOOOOOOOOOOOOOOOOOOOOOOOOOOOOOOOOOOOO....                    ",
"            ....OOOOOOOOOOOOOOOOOOOOOOOOOOOOOOOOOOOOOOOOOOOOOOOOOOOOOOOOOOOOOOOOOOOOOOOOOOOOOOOOOOOOOOOO....                    ",
"            ....OOOOOOOOOOOOOOOOOOOOOOOOOOOOOOOOOOOOOOOOOOOOOOOOOOOOOOOOOOOOOOOOOOOOOOOOOOOOOOOOOOOOOOOO....                    ",
"            ....OOOOOOOOOOOOOOOOOOOOOOOOOOOOOOOOOOOOOOOOOOOOOOOOOOOOOOOOOOOOOOOOOOOOOOOOOOOOOOOOOOOOOOOO....                    ",
"            ....OOOOOOOOOOOOOOOOOOOOOOOOooooooooooooooooOOOOOOOOOOOOOOOOOOOOOOOOOOOOOOOOOOOOOOOOOOOOOOOO....                    ",
"            ....OOOOOOOOOOOOOOOOOOOOOOOOooooooooooooooooOOOOOOOOOOOOOOOOOOOOOOOOOOOOOOOOOOOOOOOOOOOOOOOO....                    ",
"            ....OOOOOOOOOOOOOOOOOOOOOOOOooooooooooooooooOOOOOOOOOOOOOOOOOOOOOOOOOOOOOOOOOOOOOOOOOOOOOOOO....                    ",
"            ....OOOOOOOOOOOOOOOOOOOOOOOOooooooooooooooooOOOOOOOOOOOOOOOOOOOOOOOOOOOOOOOOOOOOOOOOOOOOOOOO....                    ",
"            ....OOOOOOOOOOOOOOOOOOOOOOOOXXXXooooooooooooooooOOOOOOOOOOOOXXXXOOOOOOOOOOOOOOOOOOOOOOOOOOOO....                    ",
"            ....OOOOOOOOOOOOOOOOOOOOOOOOXXXXooooooooooooooooOOOOOOOOOOOOXXXXOOOOOOOOOOOOOOOOOOOOOOOOOOOO....                    ",
"            ....OOOOOOOOOOOOOOOOOOOOOOOOXXXXooooooooooooooooOOOOOOOOOOOOXXXXOOOOOOOOOOOOOOOOOOOOOOOOOOOO....                    ",
"            ....OOOOOOOOOOOOOOOOOOOOOOOOXXXXooooooooooooooooOOOOOOOOOOOOXXXXOOOOOOOOOOOOOOOOOOOOOOOOOOOO....                    ",
"        ....OOOOOOOOOOOOOOOOOOOOOOOOOOOOXXXXXXXXooooooooooooOOOOOOOOOOOOXXXXOOOOOOOOOOOOOOOOOOOOOOOOOOOOOOOO....                ",
"        ....OOOOOOOOOOOOOOOOOOOOOOOOOOOOXXXXXXXXooooooooooooOOOOOOOOOOOOXXXXOOOOOOOOOOOOOOOOOOOOOOOOOOOOOOOO....                ",
"        ....OOOOOOOOOOOOOOOOOOOOOOOOOOOOXXXXXXXXooooooooooooOOOOOOOOOOOOXXXXOOOOOOOOOOOOOOOOOOOOOOOOOOOOOOOO....                ",
"        ....OOOOOOOOOOOOOOOOOOOOOOOOOOOOXXXXXXXXooooooooooooOOOOOOOOOOOOXXXXOOOOOOOOOOOOOOOOOOOOOOOOOOOOOOOO....                ",
"        ....OOOOOOOOOOOOOOOOooooOOOOOOOOOOOOXXXXXXXXOOOOOOOOOOOOOOOOOOOOOOOOOOOOOOOOooooooooOOOOOOOOOOOOOOOO....                ",
"        ....OOOOOOOOOOOOOOOOooooOOOOOOOOOOOOXXXXXXXXOOOOOOOOOOOOOOOOOOOOOOOOOOOOOOOOooooooooOOOOOOOOOOOOOOOO....                ",
"        ....OOOOOOOOOOOOOOOOooooOOOOOOOOOOOOXXXXXXXXOOOOOOOOOOOOOOOOOOOOOOOOOOOOOOOOooooooooOOOOOOOOOOOOOOOO....                ",
"        ....OOOOOOOOOOOOOOOOooooOOOOOOOOOOOOXXXXXXXXOOOOOOOOOOOOOOOOOOOOOOOOOOOOOOOOooooooooOOOOOOOOOOOOOOOO....                ",
"        ....OOOOOOOOOOOOOOOOooooOOOOOOOOOOOOOOOOOOOOOOOOOOOOOOOOOOOOOOOOOOOOOOOOOOOOooooooooOOOOOOOOOOOOOOOO....                ",
"        ....OOOOOOOOOOOOOOOOooooOOOOOOOOOOOOOOOOOOOOOOOOOOOOOOOOOOOOOOOOOOOOOOOOOOOOooooooooOOOOOOOOOOOOOOOO....                ",
"        ....OOOOOOOOOOOOOOOOooooOOOOOOOOOOOOOOOOOOOOOOOOOOOOOOOOOOOOOOOOOOOOOOOOOOOOooooooooOOOOOOOOOOOOOOOO....                ",
"        ....OOOOOOOOOOOOOOOOooooOOOOOOOOOOOOOOOOOOOOOOOOOOOOOOOOOOOOOOOOOOOOOOOOOOOOooooooooOOOOOOOOOOOOOOOO....                ",
"        ....OOOOOOOOOOOOXXXXooooooooOOOOOOOOOOOOOOOOOOOOOOOOOOOOOOOOOOOOOOOOOOOOXXXXooooooooOOOOOOOOOOOOOOOO....                ",
"        ....OOOOOOOOOOOOXXXXooooooooOOOOOOOOOOOOOOOOOOOOOOOOOOOOOOOOOOOOOOOOOOOOXXXXooooooooOOOOOOOOOOOOOOOO....                ",
"        ....OOOOOOOOOOOOXXXXooooooooOOOOOOOOOOOOOOOOOOOOOOOOOOOOOOOOOOOOOOOOOOOOXXXXooooooooOOOOOOOOOOOOOOOO....                ",
"        ....OOOOOOOOOOOOXXXXooooooooOOOOOOOOOOOOOOOOOOOOOOOOOOOOOOOOOOOOOOOOOOOOXXXXooooooooOOOOOOOOOOOOOOOO....                ",
"            ....OOOOOOOOXXXXXXXXooooooooOOOOOOOOOOOOOOOOooooXXXXOOOOOOOOOOOOOOOOXXXXXXXXXXXXOOOOOOOOOOOOXXXXXXXX....            ",
"            ....OOOOOOOOXXXXXXXXooooooooOOOOOOOOOOOOOOOOooooXXXXOOOOOOOOOOOOOOOOXXXXXXXXXXXXOOOOOOOOOOOOXXXXXXXX....            ",
"            ....OOOOOOOOXXXXXXXXooooooooOOOOOOOOOOOOOOOOooooXXXXOOOOOOOOOOOOOOOOXXXXXXXXXXXXOOOOOOOOOOOOXXXXXXXX....            ",
"            ....OOOOOOOOXXXXXXXXooooooooOOOOOOOOOOOOOOOOooooXXXXOOOOOOOOOOOOOOOOXXXXXXXXXXXXOOOOOOOOOOOOXXXXXXXX....            ",
"            ....OOOOOOOOOOOOXXXXXXXXOOOOOOOOOOOOOOOOOOOOooooooooOOOOOOOOOOOOOOOOOOOOOOOOOOOOOOOOOOOOooooooooXXXX....            ",
"            ....OOOOOOOOOOOOXXXXXXXXOOOOOOOOOOOOOOOOOOOOooooooooOOOOOOOOOOOOOOOOOOOOOOOOOOOOOOOOOOOOooooooooXXXX....            ",
"            ....OOOOOOOOOOOOXXXXXXXXOOOOOOOOOOOOOOOOOOOOooooooooOOOOOOOOOOOOOOOOOOOOOOOOOOOOOOOOOOOOooooooooXXXX....            ",
"            ....OOOOOOOOOOOOXXXXXXXXOOOOOOOOOOOOOOOOOOOOooooooooOOOOOOOOOOOOOOOOOOOOOOOOOOOOOOOOOOOOooooooooXXXX....            ",
"            ....OOOOOOOOOOOOOOOOOOOOOOOOOOOOOOOOOOOOOOOOOOOOOOOOOOOOOOOOOOOOOOOOOOOOOOOOOOOOOOOOOOOOoooooooooooo....            ",
"            ....OOOOOOOOOOOOOOOOOOOOOOOOOOOOOOOOOOOOOOOOOOOOOOOOOOOOOOOOOOOOOOOOOOOOOOOOOOOOOOOOOOOOoooooooooooo....            ",
"            ....OOOOOOOOOOOOOOOOOOOOOOOOOOOOOOOOOOOOOOOOOOOOOOOOOOOOOOOOOOOOOOOOOOOOOOOOOOOOOOOOOOOOoooooooooooo....            ",
"            ....OOOOOOOOOOOOOOOOOOOOOOOOOOOOOOOOOOOOOOOOOOOOOOOOOOOOOOOOOOOOOOOOOOOOOOOOOOOOOOOOOOOOoooooooooooo....            ",
"                ....OOOOOOOOOOOOOOOOOOOOOOOOOOOOOOOOOOOOOOOOOOOOooooooooooooooooXXXXOOOOOOOOOOOOOOOOOOOO........                ",
"                ....OOOOOOOOOOOOOOOOOOOOOOOOOOOOOOOOOOOOOOOOOOOOooooooooooooooooXXXXOOOOOOOOOOOOOOOOOOOO........                ",
"                ....OOOOOOOOOOOOOOOOOOOOOOOOOOOOOOOOOOOOOOOOOOOOooooooooooooooooXXXXOOOOOOOOOOOOOOOOOOOO........                ",
"                ....OOOOOOOOOOOOOOOOOOOOOOOOOOOOOOOOOOOOOOOOOOOOooooooooooooooooXXXXOOOOOOOOOOOOOOOOOOOO........                ",
"                    ............OOOOOOOOOOOOOOOOOOOOOOOOOOOOOOOOOOOOXXXXXXXXXXXXOOOOOOOOOOOOOOOOOOOO....                        ",
"                    ............OOOOOOOOOOOOOOOOOOOOOOOOOOOOOOOOOOOOXXXXXXXXXXXXOOOOOOOOOOOOOOOOOOOO....                        ",
"                    ............OOOOOOOOOOOOOOOOOOOOOOOOOOOOOOOOOOOOXXXXXXXXXXXXOOOOOOOOOOOOOOOOOOOO....                        ",
"                    ............OOOOOOOOOOOOOOOOOOOOOOOOOOOOOOOOOOOOXXXXXXXXXXXXOOOOOOOOOOOOOOOOOOOO....                        ",
"                                ........OOOOOOOOOOOOOOOOOOOOOOOOOOOOOOOOOOOOOOOOOOOOOOOOOOOOOOOO....                            ",
"                                ........OOOOOOOOOOOOOOOOOOOOOOOOOOOOOOOOOOOOOOOOOOOOOOOOOOOOOOOO....                            ",
"                                ........OOOOOOOOOOOOOOOOOOOOOOOOOOOOOOOOOOOOOOOOOOOOOOOOOOOOOOOO....                            ",
"                                ........OOOOOOOOOOOOOOOOOOOOOOOOOOOOOOOOOOOOOOOOOOOOOOOOOOOOOOOO....                            ",
"                                        ............OOOOOOOOOOOOOOOOOOOOOOOOOOOO................                                ",
"                                        ............OOOOOOOOOOOOOOOOOOOOOOOOOOOO................                                ",
"                                        ............OOOOOOOOOOOOOOOOOOOOOOOOOOOO................                                ",
"                                        ............OOOOOOOOOOOOOOOOOOOOOOOOOOOO................                                ",
"                                                    ............................                                                ",
"                                                    ............................                                                ",
"                                                    ............................                                                ",
"                                                    ............................                                                ",
"                                                                                                                                ",
"                                                                                                                                ",
"                                                                                                                                ",
"                                                                                                                                ",
"                            ++++                                                                                                ",
"                            ++++                                                                                                ",
"                            ++++                                                                                                ",
"                            ++++                                                                                                ",
"                                                                                                                                ",
"                                                                                                                                ",
"                                                                                                                                ",
"                                                                                                                                ",
"                                                                                                                                ",
"                                                                                                                                ",
"                                                                                                                                ",
"                                                                                                                                ",
"                                                                                                                                ",
"                                                                                                                                ",
"                                                                                                                                ",
"                                                                                                                                "
};
