/* XPM */
static char *_eb9715404b14abdd3fbf45f713391f3jfSjb4u2ggm9nhM6[] = {
/* columns rows colors chars-per-pixel */
"32 32 11 1 ",
"  c black",
". c #263238",
"X c gray26",
"o c #76FF03",
"O c #0277BD",
"+ c #1E88E5",
"@ c #2196F3",
"# c #64B5F6",
"$ c gray74",
"% c gray88",
"& c white",
/* pixels */
"   &                            ",
"                                ",
"                                ",
"                                ",
"                                ",
"                                ",
"                                ",
"                                ",
"                                ",
"                              & ",
"               OOO              ",
"              O###O             ",
"             O#@@@@O            ",
"            O#@@@@@+O           ",
"            O#@@@@@+O           ",
"           O#@@ooo@@+O          ",
"           O++o o o++O          ",
"         XXXXXoooooXXXXX        ",
"       XX%%%%%XXXXX%%%%$XX      ",
"      .....................     ",
"     .......................    ",
"       XX%%%%%%%%%%%%%%%XX      ",
"         XX$$$%%%%%$$$XX        ",
"           XXX$$$$$XXX          ",
"              XXXXX             ",
"                                ",
"                                ",
"                                ",
"       &                        ",
"                                ",
"                                ",
"                                "
};
